<svg width="69" height="80" viewBox="0 0 69 80" fill="none" xmlns="http://www.w3.org/2000/svg">
<path d="M54.279 31.1625V13.6124C54.279 10.695 53.1199 7.89701 51.057 5.83411C48.9941 3.77121 46.1964 2.61243 43.279 2.61243H21.9889C20.4994 2.6114 19.0668 3.18429 17.9889 4.21228L4.84892 17.1525C4.37401 17.6245 3.99085 18.1805 3.71892 18.7924C3.36019 19.5449 3.17558 20.3686 3.17888 21.2023V66.4623C3.17888 69.3797 4.3379 72.1777 6.4008 74.2406C8.4637 76.3035 11.2615 77.4623 14.1789 77.4623H43.3089C45.6377 77.4586 47.9053 76.7159 49.7851 75.3412C51.6648 73.9664 53.0597 72.0306 53.769 69.8124M31.8689 18.3324H44.8389M11.9989 31.1624H44.8389M45.9989 46.1824H66.2189M59.3389 39.5724L65.1189 43.9623C65.4608 44.2216 65.738 44.5565 65.9288 44.9408C66.1197 45.3251 66.219 45.7483 66.219 46.1774C66.219 46.6064 66.1197 47.0297 65.9288 47.4139C65.738 47.7982 65.4608 48.1332 65.1189 48.3925L59.3389 52.7823M56.8689 61.4624H36.6989M43.5289 68.0624L37.8289 63.7323C37.4768 63.4666 37.1912 63.1229 36.9945 62.7281C36.7978 62.3334 36.6956 61.8984 36.6956 61.4574C36.6956 61.0164 36.7978 60.5814 36.9945 60.1866C37.1912 59.7919 37.4768 59.4481 37.8289 59.1825L43.5289 54.8524M19.6389 3.16248V11.4623C19.6402 12.4297 19.4508 13.388 19.0815 14.2821C18.7123 15.1762 18.1703 15.9887 17.4867 16.6732C16.8031 17.3577 15.9914 17.9006 15.0978 18.2711C14.2042 18.6416 13.2463 18.8324 12.2789 18.8324H3.7489C4.02083 18.2205 4.40399 17.6645 4.87891 17.1925L18.0189 4.25232C18.4913 3.7974 19.0396 3.42868 19.6389 3.16248Z" stroke="#E95322" stroke-width="5" stroke-linecap="round" stroke-linejoin="round"/>
</svg>
