<svg width="76" height="54" viewBox="0 0 76 54" fill="none" xmlns="http://www.w3.org/2000/svg">
<path d="M13.8212 50.848V27.5482C13.8396 21.1277 16.3983 14.9754 20.9384 10.4354C25.4784 5.89542 31.6306 3.33671 38.0511 3.31824C44.4717 3.33671 50.6239 5.89542 55.1639 10.4354C59.7039 14.9754 62.2627 21.1277 62.2811 27.5482V50.8082M27.2911 19.838C28.3847 17.9521 29.9538 16.3862 31.8419 15.2965C33.7301 14.2068 35.8711 13.6314 38.0511 13.6281C40.2325 13.6317 42.3747 14.2069 44.2644 15.2965C46.1541 16.3861 47.7253 17.952 48.8212 19.838M71.6111 30.9481C69.8011 28.0581 66.0611 27.3582 62.8411 27.2682H62.2811V50.9081C64.6393 51.0358 66.9899 50.5464 69.1011 49.4882C71.8011 47.8282 72.8612 44.4882 73.1812 41.5682C73.2916 40.572 73.3483 39.5706 73.3511 38.5682C73.4958 35.9154 72.893 33.2751 71.6111 30.9481ZM4.52117 30.9481C6.34117 28.0581 10.0812 27.3582 13.3012 27.2682H13.8511V50.9081C11.4963 51.035 9.14909 50.5456 7.04119 49.4882C4.34119 47.8282 3.28111 44.4882 2.96111 41.5682C2.85063 40.572 2.79396 39.5706 2.79119 38.5682C2.64283 35.9163 3.24223 33.276 4.52117 30.9481Z" stroke="#E95322" stroke-width="5" stroke-linecap="round" stroke-linejoin="round"/>
</svg>
