<svg width="22" height="28" viewBox="0 0 22 28" fill="none" xmlns="http://www.w3.org/2000/svg">
<g filter="url(#filter0_d_2020_700)">
<path d="M11.0188 7.0893C12.6858 7.0893 14.0372 5.72617 14.0372 4.04465C14.0372 2.36314 12.6858 1 11.0188 1C9.35174 1 8.00033 2.36314 8.00033 4.04465C8.00033 5.72617 9.35174 7.0893 11.0188 7.0893Z" stroke="#E95322" stroke-linecap="round" stroke-linejoin="round" shape-rendering="crispEdges"/>
<path d="M16.5754 15.9824C15.1265 19.2652 11 18.9946 11 18.9946C11 18.9946 6.87078 19.2544 5.4246 15.9824C5.14471 15.3529 5 14.6709 5 13.981C5 13.2912 5.14471 12.6092 5.4246 11.9797C6.87078 8.69691 11 8.96751 11 8.96751C11 8.96751 15.1265 8.70774 16.5754 11.9797C16.8553 12.6092 17 13.2912 17 13.981C17 14.6709 16.8553 15.3529 16.5754 15.9824Z" stroke="#E95322" stroke-linecap="round" stroke-linejoin="round" shape-rendering="crispEdges"/>
</g>
<defs>
<filter id="filter0_d_2020_700" x="0.5" y="0.5" width="21" height="27" filterUnits="userSpaceOnUse" color-interpolation-filters="sRGB">
<feFlood flood-opacity="0" result="BackgroundImageFix"/>
<feColorMatrix in="SourceAlpha" type="matrix" values="0 0 0 0 0 0 0 0 0 0 0 0 0 0 0 0 0 0 127 0" result="hardAlpha"/>
<feOffset dy="4"/>
<feGaussianBlur stdDeviation="2"/>
<feComposite in2="hardAlpha" operator="out"/>
<feColorMatrix type="matrix" values="0 0 0 0 0 0 0 0 0 0 0 0 0 0 0 0 0 0 0.25 0"/>
<feBlend mode="normal" in2="BackgroundImageFix" result="effect1_dropShadow_2020_700"/>
<feBlend mode="normal" in="SourceGraphic" in2="effect1_dropShadow_2020_700" result="shape"/>
</filter>
</defs>
</svg>
