<svg width="61" height="63" viewBox="0 0 61 63" fill="none" xmlns="http://www.w3.org/2000/svg">
<path d="M15.8254 37.4623C16.1128 38.7079 16.8249 39.8145 17.8396 40.592C18.8543 41.3694 20.1081 41.769 21.3855 41.7223H50.0554C51.3316 41.7686 52.5839 41.3685 53.5969 40.591C54.6099 39.8135 55.3204 38.7071 55.6057 37.4623L58.1057 20.2924C58.2748 19.419 58.2472 18.5189 58.0256 17.6574C57.804 16.7959 57.3935 15.9944 56.824 15.311C56.2545 14.6276 55.5401 14.0793 54.7327 13.706C53.9252 13.3326 53.0451 13.1437 52.1555 13.1525H12.0154M15.8254 37.4623L12.0154 13.1525M15.8254 37.4623C15.8254 37.4623 17.0055 50.4023 29.9255 50.9423H53.0657M12.0154 13.1525L10.8953 6.02234C10.718 5.06626 10.2124 4.20214 9.46558 3.57947C8.71873 2.95679 7.77779 2.6148 6.80542 2.61243H3.04565M27.5455 55.7124C27.5455 58.3523 25.4054 60.4924 22.7655 60.4924C20.1256 60.4924 17.9855 58.3523 17.9855 55.7124C17.9855 53.0724 20.1256 50.9324 22.7655 50.9324C25.4054 50.9324 27.5455 53.0724 27.5455 55.7124ZM57.8455 55.7124C57.8455 58.3523 55.7054 60.4924 53.0655 60.4924C50.4256 60.4924 48.2855 58.3523 48.2855 55.7124C48.2855 53.0724 50.4256 50.9324 53.0655 50.9324C55.7054 50.9324 57.8455 53.0724 57.8455 55.7124Z" stroke="#E95322" stroke-width="5" stroke-linecap="round" stroke-linejoin="round"/>
</svg>
