<svg width="76" height="67" viewBox="0 0 76 67" fill="none" xmlns="http://www.w3.org/2000/svg">
<path d="M63.04 22.0663V51.5533C63.04 54.7359 61.7757 57.788 59.5253 60.0385C57.2748 62.2889 54.2226 63.5533 51.04 63.5533H45.93V52.3434C45.93 50.1951 45.0766 48.1346 43.5576 46.6156C42.0385 45.0966 39.9783 44.2433 37.83 44.2433C35.6818 44.2433 33.6215 45.0966 32.1024 46.6156C30.5834 48.1346 29.73 50.1951 29.73 52.3434V63.5533H24.62C21.4374 63.5533 18.3851 62.2889 16.1347 60.0385C13.8843 57.788 12.62 54.7359 12.62 51.5533V22.0664M72.66 32.5934L50.28 8.10339C48.7002 6.37337 46.7771 4.99142 44.6335 4.04602C42.4899 3.10062 40.1728 2.61243 37.83 2.61243C35.4872 2.61243 33.1701 3.10062 31.0265 4.04602C28.8829 4.99142 26.9598 6.37337 25.38 8.10339L3 32.5934" stroke="#E95322" stroke-width="5" stroke-linecap="round" stroke-linejoin="round"/>
</svg>
